# xmcd
#
# Track frame offsets: 
#        150
#        16498
#        38564
#        51893
#        66403
#        88078
#        109353
#        123003
#        138453
#        150735
#
# Disc length: 2428 seconds
#
# Revision: 0
# Processed by: cddbd v1.5.2PL0 Copyright (c) Steve Scherf et al.
# Submitted via: ExactAudioCopy v0.95b4
#
DISCID=85097a0a
DTITLE=Johnny Copeland - Copeland Special
DYEAR=1981
DGENRE=Blues
TTITLE0=Claim Jumper
TTITLE1=I Wish I Was Single 
TTITLE2=Everybody Wants A Piece Of Me
TTITLE3=Copeland Special
TTITLE4=It's My Own Tears
TTITLE5=Third Party
TTITLE6=Big Time
TTITLE7=Down On Bended Knee
TTITLE8=Done Got Over It
TTITLE9=St. Louis Blues
EXTD=
EXTT0=
EXTT1=
EXTT2=
EXTT3=
EXTT4=
EXTT5=
EXTT6=
EXTT7=
EXTT8=
EXTT9=
PLAYORDER=
